<?xml version="1.0" encoding="UTF-8"?><svg id="Layer_1" xmlns="http://www.w3.org/2000/svg" viewBox="0 0 267.27 70.14"><defs><style>.cls-1{fill:#08af9b;}.cls-2{fill:#2b2764;}.cls-3{fill:#757d91;}</style></defs><g><polygon class="cls-2" points="42.24 21.12 63.36 0 21.12 0 21.12 21.12 21.12 42.24 0 63.36 42.24 63.36 42.24 42.24 42.24 42.24 42.24 21.12"/><g><polygon class="cls-1" points="42.24 21.12 42.24 42.24 42.24 42.24 63.36 42.24 63.36 0 42.24 21.12"/><polygon class="cls-1" points="0 63.36 21.12 42.24 21.12 21.12 0 21.12 0 63.36"/></g></g><g><rect class="cls-3" x="138.09" y="28.36" width="4.31" height="4.31"/><rect class="cls-3" x="131.12" y="28.36" width="4.31" height="4.31"/><path class="cls-3" d="M122.5,17.68c0-2.53-.49-4.81-1.79-6.19-1.54-1.63-3.72-2.31-6.5-2.31h-8.69v-2.13h-4.02V24.52h-6.43c-1.82,0-3.65-.28-4.7-1.17-.96-.8-1.29-2.13-1.29-3.94V10.35h-4.7v9.58c0,2.5,.56,4.96,2.06,6.38,1.88,1.79,4.27,2.53,7.94,2.53h11.14v-3.85h16.98v-7.31Zm-4.31,2.99h-12.66v-7.21h9.13c1.11,0,2.18,.52,2.71,1.2,.56,.71,.83,1.6,.83,2.83v3.17Z"/><polygon class="cls-3" points="144.43 7.63 140.11 7.63 140.11 20.67 131.45 20.67 131.45 0 127.14 0 127.14 24.99 144.43 24.99 144.43 7.63"/><rect class="cls-3" x="170.91" width="4.31" height="24.99"/><rect class="cls-3" x="110.47" y="1.39" width="4.29" height="4.29"/><rect class="cls-3" x="250.01" width="4.31" height="4.37"/><rect class="cls-3" x="262.9" y="28.39" width="4.31" height="4.31"/><path class="cls-3" d="M197.42,24.99h69.81V7.66h-4.31v13.04h-8.59V7.66h-4.31v13.04h-23.01l-.04-20.7h-4.31l.04,20.7h-24.5c-1.82,0-3.54-.28-4.59-1.17-.96-.8-1.29-2.13-1.29-3.94v-5.32h-4.77v5.85c0,2.5,.55,4.96,2.06,6.38,1.88,1.79,4.16,2.5,7.83,2.5Z"/><path class="cls-3" d="M212.04,12.1h-4.55v-1.73c0-.65,.15-1.15,.44-1.5,.27-.33,.6-.48,1.03-.48h2.38v-2.5h-2.11c-1.36,0-2.42,.43-3.16,1.28-.72,.82-1.08,2.02-1.08,3.56v3.88h7.06v-2.5Z"/><path class="cls-3" d="M153.34,24.99h12.94s0-24.99,0-24.99h-4.31V20.67h-8.59V7.63h-4.32V24.43c0,2.13-.58,3.02-2.31,3.02-.54,0-1.04-.05-1.65-.19v4.24c.53,.14,1.35,.26,2.12,.26,4.07,0,5.89-2.03,6.13-6.77Z"/><path class="cls-3" d="M103.97,44.88c0-4.08-2.78-8-9.66-8h-9.92v26.48h4.7v-10.45h4.67l6.46,10.45h5.29l-6.92-11.1c3.95-1.31,5.39-4.34,5.39-7.38Zm-10.71,3.95h-4.18v-7.57h4.18c3.88,0,5.75,1.08,5.75,3.72,0,3.07-2.29,3.85-5.75,3.85Z"/><path class="cls-3" d="M147.09,45.38c-2.39,0-4.72,.61-6.1,1.29l-.55,4.38c1.68-.83,4.29-1.53,6.07-1.53,2.36,0,3.98,.55,3.98,2.51v.24c-1.29-.18-2.45-.24-3.37-.24-4.69,0-8.03,1.99-8.03,5.85,0,4.23,3.86,5.73,8.18,5.73,2.54,0,5.33-.49,7.51-1.35v-10.05c0-5.02-3.25-6.83-7.69-6.83Zm3.4,13.88c-.92,.31-2.08,.49-3.16,.49-2.11,0-3.77-.55-3.77-2.14s1.84-2.21,4.01-2.21c.95,0,2.11,.15,2.91,.37v3.49Z"/><path class="cls-3" d="M170.94,45.63c-1.16-.15-2.21-.25-2.97-.25-5.88,0-9.74,4.01-9.74,9.16s3.71,9.07,10.08,9.07c2.48,0,4.81-.31,6.92-.89v-24.32h-4.29v7.23Zm0,13.45c-.95,.21-1.84,.34-2.67,.34-3.37,0-5.54-1.53-5.54-4.87s2.17-4.96,5.54-4.96c.77,0,1.62,.09,2.67,.37v9.13Z"/><path class="cls-3" d="M131.12,58.65c-1.26,.37-2.3,.46-3.22,.46-2.39,0-3.4-.95-3.4-4.11v-9.04h-4.32v10.26c0,5.67,3.12,7.08,7.51,7.08,1.1,0,2.27-.12,3.43-.37v.37c0,2.02-1.87,2.88-4.5,2.88-1.26,0-3.07-.31-4.62-.77v4.1c1.37,.35,3.25,.62,4.43,.62,6.83,0,8.98-2.11,8.98-8.21v-15.96h-4.29v12.68Z"/><path class="cls-3" d="M219.31,45.38c-2.39,0-4.72,.61-6.1,1.29l-.55,4.38c1.68-.83,4.29-1.53,6.07-1.53,2.36,0,3.98,.55,3.98,2.51v.24c-1.29-.18-2.45-.24-3.37-.24-4.69,0-8.03,1.99-8.03,5.85,0,4.23,3.86,5.73,8.18,5.73,2.54,0,5.33-.49,7.51-1.35v-10.05c0-5.02-3.25-6.83-7.69-6.83Zm3.4,13.88c-.92,.31-2.08,.49-3.15,.49-2.11,0-3.77-.55-3.77-2.14s1.84-2.21,4.01-2.21c.95,0,2.11,.15,2.91,.37v3.49Z"/><path class="cls-3" d="M238.25,45.5c-1.87,0-5.09,.4-7.75,.89v16.97h4.29v-13.33c1.23-.21,2.36-.34,3.28-.34,2.54,0,3.86,.95,3.86,4.1v9.56h4.29v-10.78c0-5.67-3.55-7.08-7.96-7.08Z"/><polygon class="cls-3" points="259.03 54.66 266.87 46.11 261.79 46.11 254.01 54.6 254.01 38.52 249.72 38.52 249.72 63.36 254.01 63.36 254.01 54.85 262.13 63.36 267.27 63.36 259.03 54.66"/><path class="cls-3" d="M202.75,49.13c2.51-1.11,3.69-3.36,3.69-5.58,0-3.72-2.97-6.66-9.57-6.66h-9.3v26.48h10.61c4.83,0,9.63-2.22,9.63-7.77,0-2.68-1.5-5.39-5.06-6.46Zm-10.48-7.87h4.31c3.59,0,4.99,1.27,4.99,3.1,0,2.15-1.53,3.2-4.99,3.2h-4.31v-6.3Zm5.25,17.73h-5.25v-7.02h5.12c3.46,0,5.55,.75,5.55,3.53,0,2.42-1.73,3.49-5.42,3.49Z"/><rect class="cls-3" x="110.47" y="46.11" width="4.29" height="17.25"/><rect class="cls-3" x="110.47" y="38.38" width="4.29" height="4.29"/></g></svg>