<?xml version="1.0" encoding="UTF-8"?>
<svg id="Layer_2" xmlns="http://www.w3.org/2000/svg" version="1.1" viewBox="0 0 1000 1000">
  <!-- Generator: Adobe Illustrator 29.4.0, SVG Export Plug-In . SVG Version: 2.1.0 Build 152)  -->
  <defs>
    <style>
      .st0 {
        fill: #54148d;
      }

      .st1 {
        fill: #5d1b93;
      }

      .st2 {
        fill: #59c08e;
      }

      .st3 {
        fill: #511687;
      }

      .st4 {
        fill: #54128e;
      }

      .st5 {
        fill: #5fbb99;
      }

      .st6 {
        fill: #57ba8f;
      }

      .st7 {
        fill: #5a1d92;
      }

      .st8 {
        fill: #57ba88;
      }

      .st9 {
        fill: #561790;
      }

      .st10 {
        fill: #54118e;
      }

      .st11 {
        fill: #541396;
      }

      .st12 {
        fill: #53188e;
      }

      .st13 {
        fill: #53158a;
      }

      .st14 {
        fill: #5c1995;
      }

      .st15 {
        fill: #480984;
      }

      .st16 {
        fill: #53178d;
      }

      .st17 {
        fill: #59bd90;
      }

      .st18 {
        fill: #5bc091;
      }

      .st19 {
        fill: #521584;
      }

      .st20 {
        fill: #5b1992;
      }

      .st21 {
        fill: #54b688;
      }

      .st22 {
        fill: #59bf91;
      }

      .st23 {
        fill: #591597;
      }

      .st24 {
        fill: #59be90;
      }

      .st25 {
        fill: #591498;
      }

      .st26 {
        fill: #58188e;
      }

      .st27 {
        fill: #53158f;
      }

      .st28 {
        fill: #5a1694;
      }

      .st29 {
        fill: #54168e;
      }

      .st30 {
        fill: #531392;
      }

      .st31 {
        fill: #521494;
      }

      .st32 {
        fill: #51148a;
      }

      .st33 {
        fill: #501487;
      }

      .st34 {
        fill: #501384;
      }

      .st35 {
        fill: #511492;
      }

      .st36 {
        fill: #59c091;
      }

      .st37 {
        fill: #58bc8e;
      }

      .st38 {
        fill: #5d1c91;
      }

      .st39 {
        fill: #57ba8b;
      }

      .st40 {
        fill: #57bb8e;
      }

      .st41 {
        fill: #470884;
      }

      .st42 {
        fill: #4e1386;
      }

      .st43 {
        fill: #4f118f;
      }

      .st44 {
        fill: #531298;
      }

      .st45 {
        fill: #59bf90;
      }

      .st46 {
        fill: #58bd92;
      }
    </style>
  </defs>
  <path class="st41" d="M480.3,457.2c.4.2.7.4,1.1.6,2.6,1.5,5,3.2,7.4,5,.3.2.6.4.8.6,2.4,1.7,4.3,3.9,6.2,6.1.2.2.3.4.5.6,5.2,6.2,9.9,14.1,11.8,22q-.4,1.1-1,1.4c-1.9.8-3.8,1.5-5.7,2.1-.3,0-.6.2-.9.3-.6.2-1.2.4-1.8.6-1.6.5-3.2,1-4.8,1.5-.3,0-.6.2-.9.3-2.2.7-4.5,1.5-6.7,2.3q-7.4,2.6-9.3,2.4c-.9-.9-1-1.6-1.4-2.7-2.9-7.7-8.8-13.3-16.2-16.7-7.5-3.3-17.1-2.9-24.7-.2-8.6,3.5-15,9.7-18.7,18.2-.6,1.6-1.2,3.3-1.8,4.9-.1.3-.2.6-.3.9-3.3,9.4-1.7,21.4,2.4,30.4q.2.4.4.9c.1.3.3.6.4.9,1.1,2.3,2.5,4.2,4.2,6.1.2.2.4.5.6.7,3.4,4.2,7.9,6.8,12.8,8.8q.6.3,1.1.5c7.5,3.2,16.7,2.5,24.2-.4,3.4-1.5,6.5-3.3,9.3-5.8.2-.2.4-.4.7-.6,3.4-3.1,5.4-7.1,7.2-11.3q.6-1.2,1.3-1.9c2.1.1,3.8.6,5.8,1.3.3,0,.5.2.8.3.9.3,1.8.6,2.6.9.6.2,1.2.4,1.8.6.9.3,1.8.6,2.7.9,2.2.8,4.4,1.5,6.6,2.2,2.2.7,4.4,1.5,6.7,2.2.3,0,.5.2.8.3,1,.4,1.7.6,2.5,1.4-1.3,8.2-6.6,17-12.3,22.9-.5.5-.9,1-1.3,1.5-.2.2-.4.5-.6.7-.4.5-.8,1-1.2,1.5-2.2,2.5-5.2,4.2-7.9,6.1-.6.4-1.3.9-1.9,1.3-3.7,2.5-7.4,4.5-11.7,5.8-.4.1-.8.3-1.2.4-18.3,6.1-38.8,4.8-56.1-3.8-5.1-2.6-9.7-5.7-13.8-9.6-.7-.6-1.4-1.3-2.2-1.9-3.2-2.8-5.8-6.3-8.2-9.8-.4-.6-.9-1.2-1.3-1.8-1.1-1.6-2.1-3.2-3-4.9-.2-.4-.4-.8-.6-1.2-2.8-5.4-5.2-11.2-6.4-17.1,0-.3-.1-.6-.2-.9-1.1-5.3-1.4-10.6-1.3-16.1,0-.3,0-.6,0-1,0-5.5.2-11,1.6-16.4,0-.3.2-.6.2-.9,1.9-7.4,4.6-14.7,8.9-21.2.2-.3.4-.7.6-1,1.6-2.5,3.4-4.8,5.4-7.1q.4-.5.9-1c20.4-23.2,58.6-28.6,85.1-13.4Z"/>
  <path class="st15" d="M215.4,451.5c.3,0,.6.2.9.3,7.4,2.2,14.3,5.7,20.2,10.7q.4.3.7.6c6.3,5.3,11.4,13.7,12.3,22q-.2,1-.4,1.8c-3.4.8-6.8,1.5-10.3,2.2-1.5.3-2.9.7-4.4,1-2,.5-3.9,1-5.9,1.4-.5.1-.9.2-1.4.3-.7.2-1.4.3-2.1.5q-.6.1-1.2.3c-1.1.2-2.1.2-3.3.2-.1-.4-.3-.9-.4-1.3-2.1-6.2-5.7-10.6-11.5-13.6-6.6-3.2-15-3.3-22-1.3-3.8,1.4-7.7,4.3-9.6,7.9-1.3,2.9-1.2,4.9-.2,7.8,1.6,3.7,4,5.9,7.7,7.6,6.4,2.4,13.4,3.5,20,4.8,2,.4,4.1.8,6.1,1.2.3,0,.5.1.8.2,10,2.1,19.6,5.6,27.3,12.5q.3.2.5.5c5.1,4.6,9,10.8,10.4,17.5.3,1,.5,1.9.8,2.9,2.1,9,0,19.5-4.6,27.3-.2.3-.3.5-.5.8-.1.2-.3.5-.4.7-2.5,4.2-5.8,7.7-9.8,10.6-.3.3-.7.5-1,.8-2.7,2-5.4,3.3-8.5,4.5-.7.3-1.3.6-2,.9-2.1,1-4.3,1.6-6.5,2.2-.4.1-.8.2-1.2.4-5.9,1.6-12.1,2.2-18.2,2.5q-.4,0-.8,0c-5.1.1-10.4-.8-15.4-1.8-.2,0-.5,0-.7-.1-8.8-1.8-18-5.3-24.7-11.5-.7-.5-1.3-1.1-2-1.6-2.8-2.3-5.1-5-7.2-7.9-.2-.2-.4-.5-.5-.7-3.1-4.4-6-11-5.8-16.5,2.3-.8,4.6-1.4,7-1.8,1.4-.3,2.7-.6,4-.9,3.1-.8,6.3-1.5,9.5-2.3.6-.1,1.3-.3,1.9-.4.9-.2,1.9-.4,2.8-.6q.4-.1.9-.2,2.4-.5,3.6,0c.3.9.5,1.8.7,2.7,1.1,4.3,3.6,7.8,7,10.7.2.2.4.3.6.5,6.2,5.2,15.3,6.4,23.1,5.8,5-.6,9.6-2.2,13-6,.8-1,1.5-2.1,2.1-3.2.1-.2.3-.4.4-.6.8-2.2.7-5.3,0-7.5-.4-.9-.9-1.7-1.4-2.5-.1-.2-.2-.4-.3-.7-1.9-3.3-6.4-4.9-9.9-6-.5-.2-1-.4-1.4-.6-.9-.4-1.8-.6-2.8-.8-5.2-1-10.3-2.3-15.5-3.6-.4-.1-.8-.2-1.3-.3-7.2-1.7-14.1-3.9-20.6-7.4-.4-.2-.7-.4-1.1-.5-2.3-1.2-4.3-2.7-6.3-4.4q-.4-.4-.9-.8c-3.6-3.1-6-6.3-8.3-10.5-.1-.3-.3-.5-.4-.8-4.1-7.4-4-17.7-1.8-25.6.2-.7.5-1.5.8-2.2,0-.2.1-.5.2-.7,2.4-7.9,7.8-14.9,14.6-19.4.3-.2.6-.5,1-.7,2.7-1.9,5.6-3.3,8.6-4.6.6-.3,1.2-.6,1.7-.9,1.4-.7,2.9-1,4.4-1.4.3,0,.5-.1.8-.2.3,0,.5-.1.8-.2.7-.2,1.3-.4,2-.5,11.4-3.2,23.8-2.6,35.1.7Z"/>
  <path class="st41" d="M266.4,450.4c.3,0,.7,0,1,0,.4,0,.8,0,1.2,0q.6,0,1.2,0c1.1,0,2.2,0,3.4,0,1.2,0,2.4,0,3.6,0,2.4,0,4.7,0,7.1,0,1.9,0,3.9,0,5.8,0q.4,0,.8,0c.6,0,1.1,0,1.7,0,5.2,0,10.5,0,15.7,0,4.5,0,9,0,13.5,0,5.2,0,10.4,0,15.6,0,.6,0,1.1,0,1.7,0,.3,0,.5,0,.8,0,1.9,0,3.8,0,5.8,0,2.3,0,4.7,0,7,0,1.2,0,2.4,0,3.6,0q10.6,0,14,.4c.6.6.4,1.4.4,2.2q0,.4,0,.8t0,.9c0,.9,0,1.9,0,2.8,0,.6,0,1.3,0,1.9,0,1.4,0,2.7,0,4.1,0,1.7,0,3.5,0,5.2,0,1.3,0,2.7,0,4,0,.6,0,1.3,0,1.9,0,.9,0,1.8,0,2.7,0,.3,0,.5,0,.8q0,1.8-.4,2.2c-2.9.5-5.8.4-8.7.4-.8,0-1.6,0-2.4,0-2,0-3.9,0-5.9,0-1.7,0-3.3,0-5,0-.8,0-1.5,0-2.3,0-2.5,0-4.9,0-7.4.1-.5,0-.9,0-1.4,0-1.2.2-1.5.3-2.2,1.2q-.2.8-.1,1.7,0,.5,0,1.1c0,.4,0,.8,0,1.2,0,.4,0,.8,0,1.3,0,1.2,0,2.3,0,3.5,0,1.3,0,2.5,0,3.8,0,2.2,0,4.4,0,6.6,0,3.2,0,6.3,0,9.5,0,5.1,0,10.3,0,15.4,0,5,0,10,0,15q0,.5,0,.9c0,3.4,0,6.7,0,10.1,0,.3,0,.6,0,.9,0,1.2,0,2.4,0,3.5,0,3.4,0,6.9,0,10.3,0,2.2,0,4.3,0,6.5,0,1.2,0,2.5,0,3.7,0,1.4,0,2.7,0,4.1,0,.4,0,.8,0,1.2q0,.5,0,1.1c0,.3,0,.6,0,.9q0,.7-.4,1.1c-.8,0-1.6,0-2.3.1-.2,0-.5,0-.7,0-.8,0-1.6,0-2.4,0q-.4,0-.8,0c-4.5.1-9.1.2-13.6.2-.3,0-.6,0-.8,0-3.1,0-6.3,0-9.4-.2q-.4,0-.9,0-2-.1-2.4-.5c0-.5,0-1.1,0-1.6,0-.4,0-.7,0-1.1,0-.4,0-.8,0-1.2,0-.4,0-.8,0-1.3,0-1.2,0-2.3,0-3.5,0-1.3,0-2.5,0-3.8,0-2.2,0-4.4,0-6.5,0-3.4,0-6.9,0-10.3,0-1.2,0-2.4,0-3.5,0-.3,0-.6,0-.9,0-3.3,0-6.7,0-10,0-.3,0-.6,0-.9,0-5,0-9.9,0-14.9,0-5.1,0-10.2,0-15.3,0-3.1,0-6.3,0-9.4,0-2.2,0-4.3,0-6.5,0-1.2,0-2.5,0-3.7,0-1.3,0-2.7,0-4,0-.4,0-.8,0-1.2,0-.4,0-.7,0-1.1q0-.5,0-.9c-.2-1-.5-1.5-1.2-2.2-1-.1-1.9-.2-2.9-.2-.3,0-.6,0-.9,0-1,0-2,0-3,0-.7,0-1.4,0-2.1,0-1.8,0-3.6,0-5.4,0-2.9,0-5.8,0-8.7,0-1,0-2,0-3,0-.6,0-1.2,0-1.9,0-.3,0-.6,0-.8,0q-5.2,0-5.9-.8c0-.9,0-1.8,0-2.7,0-.3,0-.6,0-.9,0-.9,0-1.9,0-2.8,0-.7,0-1.3,0-2,0-1.4,0-2.7,0-4.1,0-1.8,0-3.5,0-5.3,0-1.4,0-2.7,0-4.1,0-.7,0-1.3,0-2,0-.9,0-1.8,0-2.7,0-.3,0-.5,0-.8q0-2.3,2-2.3Z"/>
  <path class="st21" d="M547.7,409.9c.3,0,.6,0,1,0,.4,0,.7,0,1.1,0q.6,0,1.1,0c1.2,0,2.5,0,3.7,0,.9,0,1.7,0,2.6,0,1.8,0,3.6,0,5.4,0,2.3,0,4.6,0,6.9,0,1.8,0,3.6,0,5.3,0,.8,0,1.7,0,2.5,0,3.9,0,7.8,0,11.7.2.3,0,.5,0,.8,0,1.6,0,2.9.4,4.3,1,.7.3,1.3.4,2.1.6,5.8,1.4,10.8,4.8,14,9.8,3.6,6.4,3.9,13.5,2.2,20.5-.4,1.1-.8,2.1-1.4,3.2-.2.3-.3.6-.5.9-1.8,3.1-3.6,5.4-6.8,7.1-.7.4-1.3.9-1.8,1.5.5,1.2,1,1.7,2.1,2.4.3.2.6.4.9.6.8.5,1.7.9,2.5,1.4,1.5.8,2.4,1.8,3.4,3.1q.6.7,1.3,1.4c1.2,1.3,1.8,3,2.5,4.6.1.3.3.6.4.9,3.1,7.2,2.8,15.5.3,22.8-.4,1-.9,1.9-1.4,2.8-.2.4-.4.7-.6,1.1-2.4,4.2-5.1,7-9.2,9.5-.2.1-.4.3-.6.4-1.7,1.1-3.3,1.8-5.2,2.4q-.4.1-.8.3c-2.4.8-4.8,1.3-7.3,1.7-.6,0-1.2.2-1.8.3-4.3.7-8.7.6-13,.6-.8,0-1.7,0-2.5,0-1.7,0-3.5,0-5.2,0-2.2,0-4.5,0-6.7,0-1.7,0-3.4,0-5.2,0-.8,0-1.7,0-2.5,0-1.1,0-2.3,0-3.4,0-.3,0-.7,0-1,0-.3,0-.6,0-.9,0q-.4,0-.8,0t-1-.4c0-.5,0-1.1,0-1.6,0-.3,0-.7,0-1.1,0-.4,0-.8,0-1.2,0-.4,0-.8,0-1.2,0-1.1,0-2.3,0-3.4,0-1.2,0-2.5,0-3.7,0-2.4,0-4.8,0-7.2,0-2,0-3.9,0-5.9,0-.3,0-.6,0-.8,0-.6,0-1.1,0-1.7,0-5.3,0-10.6,0-15.9,0-4.6,0-9.1,0-13.7,0-5.3,0-10.6,0-15.8,0-.6,0-1.1,0-1.7,0-.3,0-.6,0-.8,0-2,0-3.9,0-5.9,0-2.4,0-4.8,0-7.1,0-1.2,0-2.4,0-3.6,0-1.3,0-2.6,0-3.9,0-.4,0-.8,0-1.2,0-.3,0-.7,0-1.1,0-.3,0-.6,0-.9,0-1.3.8-1.1,1.9-1.1ZM561.7,424.4c-.9,1.8-.6,3.9-.6,5.9,0,.5,0,1,0,1.5,0,1.1,0,2.2,0,3.2,0,1.4,0,2.8,0,4.1,0,1.1,0,2.1,0,3.2,0,.5,0,1,0,1.5,0,.7,0,1.4,0,2.1,0,.4,0,.8,0,1.2.3,1.4.8,2,2,2.8q1,.3,2,.2c.4,0,.8,0,1.2,0,.4,0,.9,0,1.3,0,.4,0,.9,0,1.4,0,.9,0,1.9,0,2.8,0,1.2,0,2.4,0,3.6,0q10,.2,18.6-4.5c2.9-3,4.1-5.8,4.1-9.9-.2-3.8-1.8-6.4-4.7-9-5.5-4.3-12.6-3.7-19.2-3.7-1.3,0-2.7,0-4,0-.9,0-1.7,0-2.6,0-.4,0-.8,0-1.2,0q-2.7,0-4.8,1.3ZM562,464.2c-.7,1.3-.8,2.5-.8,3.9,0,.3,0,.6,0,.9,0,.9,0,1.9,0,2.8,0,.7,0,1.3,0,2,0,1.4,0,2.8,0,4.1,0,1.8,0,3.5,0,5.3,0,1.4,0,2.7,0,4.1,0,.7,0,1.3,0,2,0,.9,0,1.8,0,2.7,0,.3,0,.5,0,.8,0,1.6.2,2.6,1.2,3.8,1.2.8,1.5.8,2.9.8.4,0,.7,0,1.1,0,.4,0,.8,0,1.2,0,.4,0,.8,0,1.3,0,.9,0,1.8,0,2.7,0,1.3,0,2.7,0,4,0,.9,0,1.7,0,2.6,0,.4,0,.8,0,1.2,0,6.3,0,12.3-1.2,17-5.7,1.4-1.5,2.4-3.2,3.4-5,.1-.3.3-.5.4-.8,1.7-3.6,1.3-8.1.3-11.9-.6-1.5-1.4-2.6-2.5-3.8-.2-.3-.4-.5-.7-.8-3.7-4.1-8.7-5.6-14-6-1.3,0-2.6,0-3.9,0-.5,0-1,0-1.4,0-1,0-2,0-3,0-1.3,0-2.5,0-3.8,0-1,0-2,0-3,0-.7,0-1.4,0-2.1,0q-.6,0-1.3,0c-.4,0-.7,0-1.1,0q-1,.2-1.8.9Z"/>
  <path class="st21" d="M799.2,409.9q.5,0,1,0c.3,0,.7,0,1,0,.7,0,1.4,0,2.1,0,1.1,0,2.1,0,3.2,0,.7,0,1.3,0,2,0,.3,0,.6,0,1,0q2.2,0,2.6.4c0,.7,0,1.4,0,2.1,0,.5,0,.9,0,1.4,0,.5,0,1,0,1.6,0,.5,0,1.1,0,1.6,0,1.2,0,2.3,0,3.5,0,1.8,0,3.7,0,5.5,0,5.3,0,10.5,0,15.8,0,2.9,0,5.8,0,8.7,0,1.8,0,3.7,0,5.5,0,1.1,0,2.3,0,3.4,0,.5,0,1.1,0,1.6,0,.7,0,1.5,0,2.2,0,.4,0,.8,0,1.2q.1,2.2,1.1,4c.9.2,1.9.3,2.8.4.3,0,.7,0,1,0q2.1.1,3.8-.9c.3-.4.5-.9.8-1.3.4-.5.9-1.1,1.3-1.6,1.3-1.6,2.4-3.2,3.6-4.8,1.5-2.1,3.1-4.2,4.6-6.3,1.1-1.5,2.2-3,3.3-4.5q4.1-5.6,5.2-6.7c.6,0,1.3,0,1.9-.1.4,0,.8,0,1.2,0,.4,0,.9,0,1.3,0,.4,0,.9,0,1.3,0,3.8-.1,7.6-.1,11.4-.1,0,1.6-.2,1.9-1.2,3.2-.3.3-.5.7-.8,1-.3.4-.6.7-.9,1.1-.3.4-.6.8-.9,1.1-.4.6-.9,1.2-1.3,1.7-.9,1.2-1.8,2.4-2.7,3.6-1.2,1.6-2.4,3.2-3.7,4.7-2.1,2.6-4.1,5.2-6.1,7.8-.6.8-1.2,1.6-1.9,2.5-.4.6-.9,1.1-1.3,1.7-.2.3-.4.5-.6.8q-1.1,1.4-1.4,3.1c.4.8.8,1.5,1.4,2.2,2.5,3,4.7,6.2,6.8,9.6,1,1.5,2.1,3,3.1,4.5.4.6.8,1.2,1.2,1.8,2,2.8,4,5.7,6,8.4.7.9,1.3,1.9,2,2.9.3.4.6.8.9,1.3.7,1,1.3,2,1.9,3,.2.2.4.5.6.7.1.2.3.4.4.7-.1.3-.2.7-.4,1.1-2.5,0-4.9.2-7.4.2-.8,0-1.7,0-2.5,0-1.2,0-2.4,0-3.6,0-.4,0-.7,0-1.1,0-1.6,0-2.6,0-3.7-1.1-.6-.9-1.2-1.8-1.7-2.8-.4-.6-.8-1.1-1.2-1.7-1.5-2.1-2.9-4.3-4.4-6.5-.6-.9-1.3-1.9-1.9-2.8-.9-1.4-1.9-2.8-2.8-4.2-.2-.3-.5-.7-.7-1.1-.5-.7-.9-1.4-1.4-2.1-1.5-2.3-3.1-4.6-4.9-6.7q-.2-.3-.5-.6c-.7-.6-1.1-.6-2-.6-.3,0-.6,0-.8,0q-.4,0-.9,0c-.3,0-.6,0-.9,0q-.4,0-.8,0c-.3,0-.5,0-.8,0-.9.2-1.2.5-1.7,1.2-.4,1.2-.4,2.4-.4,3.7,0,.3,0,.5,0,.8,0,.6,0,1.1,0,1.7,0,.9,0,1.8,0,2.7,0,2.3,0,4.5,0,6.8,0,1.9,0,3.8,0,5.7,0,.9,0,1.8,0,2.7,0,.5,0,1.1,0,1.6,0,.3,0,.5,0,.8q0,1.7-.4,2.1c-1.1,0-2.1,0-3.2,0-.3,0-.6,0-1,0-1,0-2.1,0-3.1,0-.7,0-1.4,0-2.1,0-1.7,0-3.4,0-5.1,0-.6-1.2-.8-2.2-.8-3.5,0-.3,0-.7,0-1.1q0-.6,0-1.1c0-.4,0-.8,0-1.2,0-1.1,0-2.2,0-3.4,0-1.2,0-2.4,0-3.6,0-2.4,0-4.7,0-7.1,0-2.8,0-5.5,0-8.3,0-4.9,0-9.8,0-14.7,0-4.8,0-9.5,0-14.3,0-.3,0-.6,0-.9,0-.3,0-.6,0-.9,0-5.4,0-10.9,0-16.3,0-1.9,0-3.8,0-5.8,0-2.3,0-4.7,0-7,0-1.2,0-2.4,0-3.6,0-1.3,0-2.6,0-3.9,0-.4,0-.8,0-1.2,0-.3,0-.7,0-1,0-.3,0-.6,0-.9.1-1.6,1.4-1.1,2.7-1.1Z"/>
  <path class="st21" d="M636.6,442.3q.5,0,1,0c.3,0,.7,0,1,0,1.1,0,2.3,0,3.4,0,.8,0,1.6,0,2.4,0,1.7,0,3.4,0,5,0,2.1,0,4.3,0,6.4,0,1.7,0,3.3,0,5,0,.8,0,1.6,0,2.4,0q15.8,0,22.2,4.7c1.7,1.7,2.9,3.8,3.9,6,.2.4.4.8.5,1.2.6,1.7.7,3.2.8,4.9,0,.3,0,.7,0,1,.1,4.5.1,9,.1,13.5,0,.8,0,1.5,0,2.3,0,2.7,0,5.3,0,8,0,2.5,0,5,0,7.4,0,2.1,0,4.3,0,6.4,0,1.3,0,2.5,0,3.8,0,1.4,0,2.8,0,4.2,0,.4,0,.8,0,1.3,0,.4,0,.8,0,1.2,0,.3,0,.7,0,1q0,.8-.8,1.5c-1.1,0-2.1,0-3.1,0-.3,0-.6,0-.9,0-.7,0-1.3,0-2,0-1,0-2,0-3,0-.6,0-1.3,0-1.9,0-.3,0-.6,0-.9,0q-2.1,0-2.5-.4c0-1.3-.1-2.7-.2-4,0-.3,0-.6,0-.9,0-.3,0-.5,0-.8q0-.7-.8-1.4c-1,0-1.3.3-2,1-.2.3-.4.5-.6.8-2.9,3.4-6.9,5.1-11.1,6.3-.4.1-.7.2-1.1.3-7,1.8-15.6,1.3-21.9-2.2-4.8-3.1-8.1-7-9.7-12.6-1.3-6.6-.4-12.8,3.2-18.5,2.2-3.1,5.7-5.9,9.5-6.7.4,0,.9-.1,1.3-.2.1-.1.2-.2.4-.4.9-.2,1.8-.3,2.7-.4.3,0,.6,0,.8-.1.9-.1,1.9-.3,2.8-.4.3,0,.6,0,1-.1,5.7-.8,11.5-1.5,17.2-2.2.3,0,.6,0,.9-.1.6,0,1.1-.1,1.7-.2,1.8-.2,3.7-.4,5.3-1.4.9-1.5.3-3.6,0-5.2-.7-1.9-2-3.3-3.5-4.6-1-.3-1.9-.4-2.9-.4-.3,0-.6,0-.9,0-.3,0-.7,0-1,0-.3,0-.7,0-1.1,0-.8,0-1.5,0-2.3,0-1.2,0-2.4,0-3.6,0-3,0-5.9,0-8.9,0-2.5,0-5,0-7.5,0-1.2,0-2.4,0-3.5,0-.7,0-1.4,0-2.1,0-.3,0-.7,0-1,0q-2.2,0-2.6-.4c0-.9,0-1.9,0-2.8q0-.4,0-.8c0-.6,0-1.2,0-1.8,0-.9,0-1.8,0-2.7,0-.6,0-1.2,0-1.7,0-.3,0-.5,0-.8,0-2.5.2-2.4,2.7-2.4ZM668.5,479.3c-2.7.5-5.4.9-8,1.2-.6,0-1.1.1-1.7.2-.8.1-1.6.2-2.5.3-4.9.6-8.8,1.9-12.1,5.7-1.1,1.9-1.4,4.2-1.1,6.3.8,2.8,3.1,5,5.6,6.5,3.7,1.8,9.3,1.5,13.2.4,5.7-2.1,10.7-5.7,13.4-11.3.5-1.6.5-3.1.4-4.8,0-.3,0-.7,0-1q0-1.9-.8-3.7c-2-1.1-4.4-.3-6.5.1Z"/>
  <path class="st21" d="M764.1,443.1q.5.2,1,.5c5.1,2.6,8.1,6.6,10.3,11.9.1.2.2.5.3.7,2.2,5.6,1.5,12.4,1.5,18.3,0,1.3,0,2.5,0,3.8,0,2.1,0,4.2,0,6.4,0,2.5,0,4.9,0,7.4,0,2.6,0,5.2,0,7.9,0,.8,0,1.5,0,2.3,0,1.4,0,2.8,0,4.2,0,.4,0,.8,0,1.3,0,.4,0,.8,0,1.1,0,.3,0,.7,0,1q0,.7-.4,1.1c-1.1,0-2.2,0-3.3,0-.3,0-.7,0-1,0-.7,0-1.4,0-2.1,0-1.1,0-2.1,0-3.2,0-.7,0-1.3,0-2,0q-.5,0-1,0-2.2,0-2.6-.4c0-.6,0-1.1,0-1.7q0-.5,0-1.1t0-1.2c0-.4,0-.8,0-1.3,0-1.2,0-2.3,0-3.5,0-1.2,0-2.4,0-3.6,0-4.1,0-8.2,0-12.3,0-2.3,0-4.5,0-6.8,0-1.2,0-2.4,0-3.6,0-1.3,0-2.7,0-4,0-.4,0-.8,0-1.2,0-4.7-1.3-8-4.5-11.4-3.1-2.9-6.1-4-10.3-4-5.6.3-10.8,2.6-15,6.3-.2.2-.4.4-.7.6-2.1,2-4,4.1-4.2,7.1,0,.8,0,1.6,0,2.3,0,.4,0,.9,0,1.3,0,1.2,0,2.3,0,3.5,0,1.2,0,2.4,0,3.6,0,2.3,0,4.6,0,6.9,0,3.4,0,6.8,0,10.1,0,.5,0,1,0,1.5,0,.2,0,.5,0,.7,0,1.4,0,2.9,0,4.3,0,.7,0,1.4,0,2,0,.8,0,1.7,0,2.5,0,.4,0,.7,0,1.1q0,.5,0,1,0,.7-.4,1.1c-1.1,0-2.2,0-3.3,0-.3,0-.7,0-1,0-1.1,0-2.1,0-3.2,0-.7,0-1.4,0-2.1,0-1.7,0-3.5,0-5.2,0-.6-1.6-.8-3.1-.8-4.8,0-.3,0-.5,0-.8,0-.9,0-1.7,0-2.6,0-.6,0-1.3,0-1.9,0-1.7,0-3.4,0-5.1,0-1.8,0-3.6,0-5.3,0-3,0-6,0-8.9,0-3.4,0-6.9,0-10.3,0-3,0-5.9,0-8.9,0-1.8,0-3.5,0-5.3,0-1.7,0-3.3,0-5,0-.6,0-1.2,0-1.8,0-.8,0-1.7,0-2.5,0-.2,0-.5,0-.7,0-1.6.3-2.9.8-4.4,2.1,0,4.2,0,6.3,0,.7,0,1.4,0,2.1,0,1,0,2.1,0,3.1,0,.3,0,.6,0,1,0,.8,0,1.5,0,2.3,0,.8.8.5,2.8.5,3.9q0,1.5.7,2.8c.2.1.3.2.5.3,1.3-.5,2.1-1.3,3.1-2.3,1.4-1.3,2.5-2,4.3-2.7.7-.3,1.4-.7,2.1-1.1.9-.4,1.9-.7,2.9-1,.3-.1.6-.2.9-.4,7.4-2.7,15.6-2.4,22.7,1.1Z"/>
  <path class="st40" d="M730.6,460.7h.7c-.5,1.1-1.1,1.9-1.9,2.8-1.5,1.6-2.4,2.9-2.5,5.1,0,.4,0,.7,0,1.1q0,.6,0,1.2c0,.4,0,.9,0,1.3,0,1.2,0,2.3,0,3.5,0,1.2,0,2.4,0,3.7,0,2.3,0,4.6,0,6.9,0,2.6,0,5.3,0,7.9,0,5.4,0,10.8,0,16.2-.2.1-.5.2-.7.4,0-5.7-.1-11.5-.1-17.2,0-2.7,0-5.3,0-8,0-2.3,0-4.6,0-7,0-1.2,0-2.5,0-3.7,0-1.4,0-2.7,0-4.1,0-.4,0-.8,0-1.2,0-3.1,1.1-4.6,3.2-6.8.3-.4.7-.8,1-1.3.2-.3.5-.6.7-.8Z"/>
  <path class="st16" d="M163.9,457.9v.7c-.3.2-.7.5-1.1.7-.3-.1-.7-.2-1.1-.4q1.3-1.1,2.1-1.1ZM161.8,459.3c-.4,1.3-1,1.7-2,2.5-.3.2-.6.5-.9.8-.9.6-1.6.8-2.7,1q4-4.2,5.6-4.2ZM155.8,463.5l.4,1.1c-.9,1.6-2.2,3.1-3.5,4.2h-.7c.5-1.5,1.2-2.5,2.3-3.6.3-.3.6-.6.9-.9q.3-.4.7-.7ZM151.2,469.2c.1.2.2.5.4.7-.2-.1-.5-.2-.7-.4l.4-.4Z"/>
  <path class="st35" d="M439.3,589.1h14.8v.7c-5,.5-9.8.5-14.8,0v-.7Z"/>
  <path class="st31" d="M190,589.1h13v.7c-4.4.4-8.6.4-13,0v-.7Z"/>
  <path class="st32" d="M401.3,465.3c-.5,1.1-1.1,1.9-2,2.7-.2.2-.5.5-.8.7-.3.3-.5.5-.8.8-.3.3-.5.5-.8.8-.5.5-1,.9-1.4,1.4-.4.4-.8.8-1.2,1.2q-.5.4-1.2.4c.6-1.5,1.6-2.5,2.7-3.7.2-.2.4-.4.6-.6q3.6-3.8,4.8-3.8Z"/>
  <path class="st6" d="M726.1,442.4l.7.4c.1,1.2.1,2.4.2,3.6q0,1.5.7,2.8c.2.1.3.2.5.3q.3-.2.7-.3l1.5-.7c-.2,1-.3,1.4-1.1,2.1q-1.2.1-2.5,0c-.8-1.1-.8-1.4-.8-2.7q0-.5,0-1c0-.3,0-.7,0-1,0-.3,0-.7,0-1,0-.8,0-1.6,0-2.5Z"/>
  <path class="st44" d="M186.5,476.2v.7q-.3.1-.6.2c-3.2,1.3-5.5,3.3-7.9,5.8l-.7-.4c.2-.3.5-.5.7-.8q.8-.9,1.1-2t1.2-.8.8-.5c.3-.2.5-.3.8-.5.3-.2.6-.3.8-.5.3-.2.5-.3.8-.5.3-.1.5-.3.8-.4q.7-.3,2.1-.3Z"/>
  <path class="st17" d="M616,475.2h.7c.3,1.1.4,2,.4,3.1,0,.3,0,.6,0,1,0,.3,0,.7,0,1,0,.3,0,.7,0,1,0,1.7,0,3.2-.4,4.9h-.7v-10.9Z"/>
  <path class="st11" d="M425.6,487.5l.7.7c-.3.2-.5.5-.8.7-2.3,2.1-4.4,4.2-6.2,6.7l-.7-.4c.2-.3.5-.7.7-1q.8-1.1,1.1-2.2c.5-.4,1-.9,1.5-1.3q.7-.5,1.5-1.4c.7-.7,1.4-1.3,2.2-1.9Z"/>
  <path class="st46" d="M849.5,453c.1.3.2.7.4,1.1-.6.8-1.1,1.5-1.8,2.2-.4.4-.7.8-1.1,1.2-.2.2-.3.4-.5.6-.9,1.1-1.8,2.2-2.6,3.4l-.7-.4c.3-.5.7-1.1,1-1.6.2-.3.4-.6.6-.9.2-.2.4-.5.5-.7h.7q.1-.3.3-.6c.9-1.7,1.9-3.1,3.3-4.4Z"/>
  <path class="st20" d="M420.3,545.3c1.2.5,1.8,1.2,2.7,2.2.8.9,1.7,1.7,2.7,2.5.9.7,1.7,1.5,2.4,2.4l-2.1-.4-.4-1.1-1.1-.7v-.7c-.2,0-.4,0-.6,0-1.2-.4-1.8-1.1-2.6-2v-1.1h-1.1v-1.1Z"/>
  <path class="st43" d="M243.6,569.3c.1.3.2.7.4,1.1-1.4,2.2-3.9,5.8-6.4,6.6-.2,0-.4,0-.6.1v-.7c.3-.2.7-.4,1-.7,1.1-.7,1.3-1,1.8-2.2q.7-.8,1.4-1.4h.7v-.7h.7l.3-.7.7-1.5Z"/>
  <path class="st38" d="M174.9,554.2c1.3.5,2.2,1.3,3.2,2.3.9.8,1.8,1.6,2.8,2.3v.7c-1.3-.6-2.4-1.3-3.5-2.1-.3-.2-.7-.5-1.1-.7v-.7c-.5-.2-.9-.5-1.4-.7v-1.1Z"/>
  <path class="st23" d="M167.8,543.9v1.1c-.6.1-1.1.3-1.7.4-.3,0-.6.1-.9.2-.9.1-1.5,0-2.3-.2v-.7q3.3-.8,4.9-.7Z"/>
  <path class="st1" d="M182.6,499.1c1.2.3,2.4.7,3.6,1.1.4.1.8.3,1.2.4.3,0,.6.2.9.3v.7c-2.3.2-3.7-.5-5.6-1.8v-.7Z"/>
  <path class="st30" d="M234.8,577.8c.3.1.7.2,1.1.4-1.4,1.5-2.8,2.5-4.6,3.5v-1.1c.7-.5,1.4-1,2.1-1.4.5-.5,1-.9,1.4-1.4Z"/>
  <path class="st8" d="M581,422.6c.3,0,.7,0,1,0,.3,0,.5,0,.8,0,.1.2.2.5.4.7q-3,.2-6,.4v-.7c1.3-.3,2.5-.4,3.8-.4Z"/>
  <path class="st5" d="M729.9,448.4c.1.3.2.7.4,1.1q-.4.5-1.1,1.1t-2.5,0v-1.8c.7.2,1.4.5,2.1.7l1.1-1.1Z"/>
  <path class="st24" d="M603.7,452.2v1.1q-.9.8-1.8,1.4c.1.6.2,1.2.4,1.8-.5-.2-.9-.5-1.4-.7v-1.8h1.1v-.7q.9-.6,1.8-1.1Z"/>
  <path class="st13" d="M457.4,449.7c1.1,0,2,.1,3.1.4v.7c-.6,0-1.1,0-1.7,0-.3,0-.6,0-1,0q-.9,0-1.9-.8t1.5-.4Z"/>
  <path class="st4" d="M488.7,575.3c.1.3.2.7.4,1.1-1.3.8-2.6,1.6-3.9,2.5v-1.1q.8-.6,1.8-1.3t1-.7.8-.5Z"/>
  <path class="st42" d="M392.4,473.8c.1.3.2.7.4,1.1h-.7c.1-.3.2-.7.4-1.1ZM391.4,475.2c.1.3.2.7.4,1.1q-.3.5-.7,1.1h-.7q.7-1.7,1.1-2.1ZM390,477.3l.4.7-.4.7h-.7l.7-1.4Z"/>
  <path class="st3" d="M472.1,547.5c-.5,1.3-1.4,2.2-2.5,3.2l-1.1-.4c.5-.5.9-.9,1.4-1.4q.4-.4.8-.8t1.4-.6Z"/>
  <path class="st14" d="M478.5,535.8c.9,0,1.9.2,2.8.4v.7c-.4,0-.8,0-1.2,0q-1.3,0-2.4.7.3-1.4.7-1.8Z"/>
  <path class="st22" d="M608.6,448c0,1.2-.2,1.4-1,2.4-.2.2-.4.4-.6.7q-.5.5-1.2.5c.1-.5.2-.9.4-1.4h.7c0-.2.2-.4.3-.7q.4-.7,1.5-1.5Z"/>
  <path class="st9" d="M205.2,449.8h3.2v1.1c-1.2-.1-2.3-.2-3.5-.4l.4-.7Z"/>
  <path class="st29" d="M168.9,455.1l-.7,1.4h-1.8q1.3-1.4,2.5-1.4ZM165.3,456.5l1.1.4-1.4.7c.1-.3.2-.7.4-1.1Z"/>
  <path class="st0" d="M188.6,562.3q1.7.3,3.5.7v.7q-2.3,0-3.5-.4v-1.1Z"/>
  <path class="st12" d="M215.1,557.7l.4.7c-.7,1.1-1.3,1.5-2.5,2.1h-.7c.4-1.2.6-1.3,1.6-2,.2-.2.5-.3.7-.5.2-.1.3-.2.5-.3Z"/>
  <path class="st19" d="M455.9,557v.7c-.8.4-1.4.4-2.3.4q-.4,0-.9,0t-.7,0v-.7q2.7-.4,3.9-.4Z"/>
  <path class="st45" d="M609.7,500.2c-.6,1.5-1.6,2.2-2.8,3.2q0-1.1.4-1.6t.6-.6c.2-.2.4-.4.6-.6q.5-.4,1.2-.4Z"/>
  <path class="st36" d="M840.7,463.9h.7c-.5,1.4-1.1,2.4-2.1,3.5h-.7c.6-1.3,1.3-2.4,2.1-3.5Z"/>
  <path class="st7" d="M155.1,464.2h.7q0,1.1-.6,1.7c-.3.2-.5.4-.8.7-.3.2-.5.4-.8.7-.2.2-.4.3-.6.5-.2-.1-.5-.2-.7-.4.5-.5.9-1.1,1.4-1.6q.4-.4.8-.9c.2-.2.5-.5.7-.7Z"/>
  <path class="st18" d="M755,456.5q.7.1,1.4.4c.1.3.2.7.4,1.1.3.1.7.2,1.1.4.1.3.2.7.4,1.1-1.2-.5-2.2-1.2-3.2-2.1v-.7Z"/>
  <path class="st33" d="M467.2,551.3v1.1h-.7l-.7,1.4h-1.1c.5-1.4,1.2-1.7,2.5-2.5Z"/>
  <path class="st39" d="M562.1,423h1.4v.7q-1.6,1.4-2.5,1.4.7-1.7,1.1-2.1Z"/>
  <path class="st28" d="M237.6,517.8c1.1.4,1.4.7,2.1,1.8-.5.1-.9.2-1.4.4-.1-.3-.2-.7-.4-1.1-.3-.2-.7-.5-1.1-.7l.7-.4Z"/>
  <path class="st2" d="M836.4,469.5h.7c-.4,1.2-.9,2.2-1.8,3.2h-.7c.5-1.1,1.1-2.2,1.8-3.2Z"/>
  <path class="st25" d="M169.2,543.2l1.4.4c.1.8.2,1.6.4,2.5q-.5-.5-1.1-1.1v-1.1h-.7v-.7Z"/>
  <path class="st26" d="M434.1,555.2c.8.2,1.6.5,2.5.7v.7c-.8-.1-1.6-.2-2.5-.4v-1.1Z"/>
  <path class="st27" d="M413.3,506.2h.7c-.1.9-.2,1.9-.4,2.8h-.7l.4-2.8Z"/>
  <path class="st34" d="M141,549.9l.7.4c.1.8.3,1.6.4,2.5h-.7l-.4-2.8Z"/>
  <path class="st10" d="M162.9,544.6l2.8.4c-.1.2-.2.5-.4.7h-2.1c-.1-.3-.2-.7-.4-1.1Z"/>
  <path class="st37" d="M595.9,443.4v1.1h-1.1l1.1-1.1ZM594.5,444.8c.1.3.2.7.4,1.1-.5.1-.9.2-1.4.4.3-.5.7-.9,1.1-1.4Z"/>
</svg>